<svg xmlns="http://www.w3.org/2000/svg">
    <defs>
        <symbol id="hiking" viewBox="-5.0 -10.0 110.0 135.0">
            <path d="m95.312 78.125c-0.20312 0-0.40625 0.015625-0.60938 0.042969-0.007813-0.0625-0.023437-0.12109-0.039063-0.17969l-6.5781-23.023c-0.57031-2-2.4258-3.3984-4.5078-3.3984h-3.5234c-1.7891 0-3.3945 0.99219-4.1953 2.5938l-3.3906 6.7812h-3.9922c-1.25 0-2.4297 0.48828-3.3125 1.375l-3.3125 3.3125h-4.0391c-0.28125 0-0.5625 0.027344-0.83594 0.078125l-4.9531-4.9531c-0.88281-0.88281-2.0625-1.375-3.3125-1.375h-3.7969c-1.1172 0-2.2031 0.39844-3.0508 1.1289l-9.6211 8.2461h-4.8906l-3.2812-4.375c-0.88281-1.1719-2.2812-1.875-3.75-1.875h-1.3125c-1.6797 0-3.2383 0.90625-4.0703 2.3594l-5.9766 10.461c-1.4766 0.48828-2.7148 1.5078-3.4727 2.875-0.26172-0.046875-0.52734-0.070313-0.79688-0.070313-2.5859 0-4.6875 2.1016-4.6875 4.6875v3.125c0 0.86328 0.69922 1.5625 1.5625 1.5625h96.875c0.86328 0 1.5625-0.69922 1.5625-1.5625v-3.125c0-2.5859-2.1016-4.6875-4.6875-4.6875zm-32.812-9.375c0.41406 0 0.8125-0.16406 1.1055-0.45703l3.7695-3.7695c0.29688-0.29688 0.6875-0.45703 1.1055-0.45703h4.9531c0.59375 0 1.1328-0.33594 1.3984-0.86328l3.8242-7.6484c0.26562-0.53125 0.80469-0.86328 1.3984-0.86328h3.5234c0.69531 0 1.3125 0.46875 1.5 1.1328l5.5352 19.375c-0.5-0.125-1.0195-0.19531-1.5547-0.19531-1.1055 0-2.1797 0.29297-3.125 0.83594-0.94531-0.54688-2.0195-0.83594-3.125-0.83594-2.3203 0-4.375 1.25-5.4531 3.1953-0.26172-0.046875-0.52734-0.070313-0.79688-0.070313-2.5859 0-4.6875 2.1016-4.6875 4.6875v1.5625h-26.562l11.25-15c0.29297-0.39062 0.76172-0.625 1.25-0.625h4.6875zm-44.855-2.3359c0.27734-0.48828 0.79688-0.78906 1.3594-0.78906h1.3125c0.48828 0 0.95703 0.23438 1.25 0.625l3.75 5c0.29688 0.39062 0.75781 0.625 1.25 0.625h6.25c0.375 0 0.73438-0.13281 1.0156-0.375l10.062-8.625c0.28125-0.24219 0.64453-0.375 1.0156-0.375h3.7969c0.41797 0 0.8125 0.16406 1.1055 0.45703l4.3828 4.3828c-0.042968 0.054687-0.085937 0.10547-0.12891 0.16406l-12.656 16.875h-13.281v-1.5625c0-2.5859-2.1016-4.6875-4.6875-4.6875-0.26562 0-0.53125 0.023438-0.79688 0.070313-1.0781-1.9375-3.1328-3.1953-5.4531-3.1953-1.1055 0-2.1797 0.29297-3.125 0.83594-0.45703-0.26562-0.94531-0.46875-1.4531-0.60938l5.0391-8.8164zm-14.52 16.398c0-0.85938 0.70312-1.5625 1.5625-1.5625 0.29688 0 0.58594 0.085938 0.83984 0.25 0.42969 0.27344 0.96094 0.32422 1.4297 0.13281 0.46875-0.19141 0.82031-0.60156 0.93359-1.0938 0.28906-1.2344 1.2734-2.1484 2.4883-2.3633h0.003906c0.17969-0.03125 0.36328-0.046875 0.55078-0.046875 0.76953 0 1.5078 0.28125 2.082 0.79688 0.59375 0.53125 1.4922 0.53125 2.0859 0 0.57422-0.51562 1.3125-0.79688 2.082-0.79688 1.4609 0 2.7109 0.99219 3.043 2.4141 0.11719 0.49219 0.46094 0.90234 0.93359 1.0938 0.46875 0.19141 1.0078 0.14062 1.4297-0.13281 0.25-0.16406 0.54297-0.25 0.83984-0.25 0.85937 0 1.5625 0.70312 1.5625 1.5625v1.5625l-21.867-0.003906zm93.75 1.5625h-21.875v-1.5625c0-0.85938 0.70312-1.5625 1.5625-1.5625 0.29688 0 0.58594 0.085938 0.83984 0.25 0.42969 0.27344 0.96094 0.32422 1.4297 0.13281 0.46875-0.19141 0.82031-0.60156 0.93359-1.0938 0.32812-1.4219 1.582-2.4141 3.043-2.4141 0.76953 0 1.5078 0.28125 2.082 0.79688 0.59375 0.53125 1.4922 0.53125 2.0859 0 0.57422-0.51562 1.3125-0.79688 2.082-0.79688 1.4609 0 2.7109 0.99219 3.043 2.4141 0.11719 0.49219 0.46094 0.90234 0.93359 1.0938 0.46875 0.19141 1.0078 0.14063 1.4297-0.13281 0.25-0.16406 0.54297-0.25 0.83984-0.25 0.85937 0 1.5625 0.70312 1.5625 1.5625v1.5625z"/>
            <path d="m10.938 41.789v3.5234c-0.86328 0-1.5625 0.69922-1.5625 1.5625v6.25c0 0.86328 0.69922 1.5625 1.5625 1.5625h9.375c0.86328 0 1.5625-0.69922 1.5625-1.5625v-6.25c0-0.86328-0.69922-1.5625-1.5625-1.5625v-3.5234c0.035156-0.03125 0.070312-0.0625 0.10156-0.097656 0.3125-0.33594 7.7109-8.3594 7.7109-16.691 0-6.8906-5.6094-12.5-12.5-12.5s-12.5 5.6094-12.5 12.5c0 8.332 7.3945 16.352 7.7109 16.691 0.03125 0.035156 0.066406 0.066406 0.10156 0.097656zm7.8125 9.7734h-6.25v-3.125h6.25zm-4.6875-6.25v-3.125h3.125v3.125zm1.5625-29.688c5.1719 0 9.375 4.2031 9.375 9.375 0 6.0312-4.9219 12.285-6.4375 14.062h-5.875c-1.5117-1.7773-6.4375-8.0312-6.4375-14.062 0-5.1719 4.2031-9.375 9.375-9.375z"/>
            <path d="m42.188 35.938h21.875c3.4453 0 6.25-2.8047 6.25-6.25 0-3.4492-2.8047-6.25-6.25-6.25-1.1055 0-2.1797 0.29297-3.125 0.83594-0.94531-0.54688-2.0195-0.83594-3.125-0.83594-0.48438 0-0.96875 0.054688-1.4414 0.17188-1.4492-2.0391-3.8203-3.2969-6.3711-3.2969s-4.9219 1.2578-6.3711 3.2969c-0.46875-0.10938-0.95703-0.17188-1.4414-0.17188-3.4453 0-6.25 2.8047-6.25 6.25 0 3.4492 2.8047 6.25 6.25 6.25zm0-9.375c0.5 0 0.97656 0.11719 1.4219 0.34375 0.37891 0.19531 0.82031 0.22266 1.2227 0.085938 0.40234-0.14063 0.73047-0.4375 0.91016-0.82031 0.76562-1.6562 2.4375-2.7305 4.2578-2.7305 1.8242 0 3.4961 1.0703 4.2578 2.7305 0.17969 0.38672 0.50781 0.68359 0.91016 0.82031 0.40234 0.14062 0.84375 0.10937 1.2227-0.085938 0.44531-0.22656 0.92188-0.34375 1.4219-0.34375 0.76953 0 1.5078 0.28125 2.082 0.79688 0.59375 0.53125 1.4922 0.53125 2.0859 0 0.57422-0.51562 1.3125-0.79688 2.082-0.79688 1.7227 0 3.125 1.4023 3.125 3.125s-1.4023 3.125-3.125 3.125h-21.875c-1.7227 0-3.125-1.4023-3.125-3.125s1.4023-3.125 3.125-3.125z"/>
            <path d="m75 48.438h15.625c3.4453 0 6.25-2.8047 6.25-6.25 0-3.4492-2.8047-6.25-6.25-6.25-0.48438 0-0.96875 0.054688-1.4414 0.17188-1.4492-2.0391-3.8203-3.2969-6.3711-3.2969s-4.9219 1.2578-6.3711 3.2969c-0.46875-0.10938-0.95703-0.17188-1.4414-0.17188-3.4453 0-6.25 2.8047-6.25 6.25 0 3.4492 2.8047 6.25 6.25 6.25zm0-9.375c0.5 0 0.97656 0.11719 1.4219 0.34375 0.37891 0.19531 0.82031 0.22266 1.2227 0.085938 0.40234-0.14063 0.73047-0.4375 0.91016-0.82031 0.76562-1.6562 2.4375-2.7305 4.2578-2.7305 1.8242 0 3.3906 1.0078 4.1875 2.5781 0.035156 0.10547 0.082031 0.20703 0.14062 0.30469 0.42188 0.71094 1.3242 0.96484 2.0586 0.58594 0.44531-0.23047 0.92578-0.34766 1.4297-0.34766 1.7227 0 3.125 1.4023 3.125 3.125s-1.4023 3.125-3.125 3.125h-15.625c-1.7227 0-3.125-1.4023-3.125-3.125s1.4023-3.125 3.125-3.125z"/>
        </symbol>
        <symbol id="category" viewBox="-5.0 -10.0 110.0 135.0">
            <path d="m83.332 54.168h-21.875c-4.0156 0.019531-7.2695 3.2734-7.2891 7.2891v21.875c0.019531 4.0195 3.2734 7.2695 7.2891 7.293h21.875c4.0195-0.023438 7.2695-3.2734 7.293-7.293v-21.875c-0.023438-4.0156-3.2734-7.2695-7.293-7.2891zm1.043 29.168v-0.003907c0 0.27734-0.10938 0.54297-0.30469 0.73828-0.19531 0.19531-0.46094 0.30469-0.73828 0.30469h-21.875c-0.57422 0-1.0391-0.46484-1.0391-1.043v-21.875c0-0.57422 0.46484-1.0391 1.0391-1.0391h21.875c0.27734 0 0.54297 0.10938 0.73828 0.30469 0.19531 0.19531 0.30469 0.46094 0.30469 0.73438zm-45.832-29.168h-21.875c-4.0195 0.019531-7.2695 3.2734-7.293 7.2891v21.875c0.023438 4.0195 3.2734 7.2695 7.293 7.293h21.875c4.0156-0.023438 7.2695-3.2734 7.2891-7.293v-21.875c-0.019531-4.0156-3.2734-7.2695-7.2891-7.2891zm1.043 29.168-0.003907-0.003907c0 0.27734-0.10938 0.54297-0.30469 0.73828-0.19531 0.19531-0.46094 0.30469-0.73438 0.30469h-21.875c-0.57812 0-1.043-0.46484-1.043-1.043v-21.875c0-0.57422 0.46484-1.0391 1.043-1.0391h21.875c0.27344 0 0.53906 0.10938 0.73438 0.30469 0.19531 0.19531 0.30469 0.46094 0.30469 0.73438zm-1.043-73.961h-21.875c-4.0195 0.023438-7.2695 3.2734-7.293 7.293v21.875c0.023438 4.0156 3.2734 7.2695 7.293 7.2891h21.875c4.0156-0.019531 7.2695-3.2734 7.2891-7.2891v-21.875c-0.019531-4.0195-3.2734-7.2695-7.2891-7.293zm1.043 29.168h-0.003907c0 0.27344-0.10938 0.53906-0.30469 0.73438-0.19531 0.19531-0.46094 0.30469-0.73438 0.30469h-21.875c-0.57812 0-1.043-0.46484-1.043-1.0391v-21.875c0-0.57812 0.46484-1.043 1.043-1.043h21.875c0.27344 0 0.53906 0.10938 0.73438 0.30469 0.19531 0.19531 0.30469 0.46094 0.30469 0.73828zm15.621-11.461c0.023438-1.7148 1.4102-3.1016 3.125-3.125h11.457l0.003907-11.457c0-1.7266 1.3984-3.125 3.125-3.125 1.7227 0 3.125 1.3984 3.125 3.125v11.457h11.457c1.7266 0 3.125 1.4023 3.125 3.125 0 1.7266-1.3984 3.125-3.125 3.125h-11.457v11.461c0 1.7227-1.4023 3.125-3.125 3.125-1.7266 0-3.125-1.4023-3.125-3.125v-11.461h-11.461c-1.7148-0.019531-3.1016-1.4062-3.125-3.125z"/>
        </symbol>
        <symbol id="location" viewBox="-5.0 -10.0 110.0 135.0">
            <path d="m49.531 96.379c-17.039 0-29.891-6.1094-30.621-14.609-0.26562-3.0625 0.96875-10.121 16.453-13.918-3.1094-3.9102-6.7227-8.4609-9.3789-11.754-16.812-20.012-2.2578-54.188 24.836-52.473 26.156 0.089844 39.586 33.164 23.293 52.707-2.4727 3.0664-5.8086 7.2109-9.2422 11.488 10.207 2.5078 16.344 7.4414 16.344 13.43 0.125 8.7148-14.09 15.312-31.684 15.129zm-9.8398-23.074c-25.629 5.0117-13.875 16.387 9.8516 16.828 24.301-0.28125 36.793-11.48 10.953-16.848-2.8633 3.4609-5.5117 7.1602-8.3555 10.402l-0.019531 0.019531-0.003906 0.007813-0.011719 0.011718h-0.015625l-0.007813 0.007813s0.019531 0.007813-0.003906 0.003906v0.003907h-0.003906v0.003906h-0.003907l-0.023437 0.023437-0.007813 0.003907v0.003906h-0.003906v0.003906l-0.007812 0.007812-0.007813 0.003907-0.003906 0.003906s0.011719 0-0.003906 0.003906l-0.042969 0.042969-0.027344 0.019531-0.003906-0.027343c-0.61719 0.41797-1.3633 0.60547-2.1055 0.52344l-0.007812-0.003906-0.019531-0.003907c-0.0625-0.003906-0.12109-0.011718-0.18359-0.027343l-0.015625-0.003907h-0.015625v-0.003906l-0.015625-0.003906v0.003906c-0.38672-0.074218-0.75781-0.22266-1.0859-0.44141l-0.003906-0.003906-0.007813-0.003906-0.003906-0.003907v-0.003906h-0.003906v-0.003906h-0.003906v-0.003907h-0.003906s0.015624-0.003906-0.003907-0.003906c0 0 0.019531 0-0.003906-0.003906 0 0 0.011719 0.003906-0.003906-0.003906v-0.003906l-0.011719 0.003906-0.011719-0.011719-0.015625-0.007813-0.011718-0.011718-0.011719-0.007813-0.003907-0.003906c-2.7656-2.8516-5.8633-7.1367-8.6914-10.492zm6.9453-1.3555c1.1484 1.418 2.4141 2.9688 3.5039 4.3047 6.1836-7.8086 13.824-17.293 19.098-23.836 13.07-15.5 2.3945-42.594-18.633-42.547-21.715-1.5625-33.234 26.508-19.762 42.297 4.7227 5.8516 10.871 13.672 15.793 19.785zm25.035-17.57zm-21.672-3.4922c-4.3086 0.074219-8.4609-1.6055-11.504-4.6484-3.0469-3.043-4.7305-7.1953-4.6602-11.5 0.79687-21.207 31.531-21.207 32.324 0.003907h0.003906c0.058594 4.3047-1.625 8.4492-4.668 11.488-3.0469 3.043-7.1953 4.7227-11.496 4.6562zm-9.9102-16.051h-0.003906c-0.0625 2.6367 0.96484 5.1875 2.8398 7.043 1.875 1.8555 4.4336 2.8516 7.0742 2.7578 12.992 0.09375 13.203-19.652 0-19.602-2.6367-0.09375-5.1953 0.90625-7.0742 2.7578-1.875 1.8555-2.9023 4.4062-2.8398 7.043z"/>
        </symbol>
        <symbol id="star" viewBox="0 0 98 122.5">
            <path d="M72.624,87.345c-0.369,0-0.739-0.102-1.065-0.309L49,72.753L26.441,87.036c-0.689,0.436-1.575,0.408-2.235-0.071  c-0.66-0.48-0.961-1.313-0.759-2.104l6.613-25.869L9.504,41.95c-0.628-0.521-0.875-1.372-0.623-2.148  c0.252-0.776,0.952-1.319,1.766-1.372l26.647-1.704l9.855-24.815c0.301-0.758,1.034-1.256,1.85-1.256s1.549,0.498,1.85,1.256  l9.856,24.815l26.646,1.704c0.814,0.052,1.514,0.596,1.766,1.372c0.252,0.776,0.006,1.627-0.623,2.148L67.94,58.992l6.613,25.869  c0.202,0.791-0.099,1.624-0.759,2.104C73.447,87.218,73.036,87.345,72.624,87.345z M49,68.406c0.37,0,0.74,0.103,1.065,0.309  L69.454,80.99L63.77,58.757c-0.191-0.746,0.066-1.535,0.658-2.026l17.666-14.647L59.194,40.62c-0.768-0.049-1.439-0.537-1.723-1.252  L49,18.04l-8.47,21.328c-0.284,0.715-0.955,1.203-1.723,1.252l-22.902,1.465l17.667,14.647c0.593,0.491,0.849,1.28,0.658,2.026  L28.546,80.99l19.389-12.276C48.26,68.509,48.63,68.406,49,68.406z"/>
        </symbol>
        <symbol id="user" viewBox="0 0 100 125">
            <path d="M50.8,50c-12.4,0-22.5-10.1-22.5-22.5C28.3,15.1,38.4,5,50.8,5c12.4,0,22.5,10.1,22.5,22.5C73.3,39.9,63.2,50,50.8,50z M50.8,11.2c-9,0-16.3,7.3-16.3,16.3c0,9,7.3,16.3,16.3,16.3c9,0,16.3-7.3,16.3-16.3C67.1,18.5,59.8,11.2,50.8,11.2z"/>
            <path d="M90.1,94H11.6v-3.1C11.6,73,18,60,30.3,53.3c4.6-2.5,9.2-0.9,13.4,0.6c2.5,0.9,4.9,1.7,7.2,1.7c2.3,0,4.6-0.8,7.2-1.7 c4.1-1.5,8.7-3.1,13.3-0.6C83.6,59.9,90.1,73,90.1,90.9V94z M17.8,87.8h66C83.3,77.5,80,65.1,68.3,58.7c-2-1.1-4.4-0.3-8.2,1 c-2.8,1-5.9,2.1-9.2,2.1c-3.3,0-6.5-1.1-9.2-2.1c-3.8-1.3-6.3-2.1-8.3-1C26.6,62.4,18.7,70.4,17.8,87.8z"/>
        </symbol>
        <symbol id="rating"  viewBox="-5.0 -10.0 110.0 135.0">
            <path d="m21 31v29c0 5.5117 4.4883 10 10 10h6.6484l5.8281 6.0781c1.0117 1.0586 2.1211 1.8281 3.2891 2.2812 3.3594 1.3203 7.1719 0.53125 9.6992-2l6.3711-6.3711h6.1719c5.5117 0 10-4.4883 10-10v-29c0-5.5117-4.4883-10-10-10h-38.008c-5.5117 0-10 4.4883-10 10zm54 0v29c0 3.3086-2.6914 6-6 6h-5.3398c-1.6016 0-3.1094 0.62109-4.2383 1.7617l-5.8594 5.8594c-0.92188 0.92188-2.1406 1.4297-3.4492 1.4297h-0.10938c-1.2617-0.011719-2.5-0.55078-3.4102-1.5l-5.4609-5.6992c-1.1289-1.1797-2.6992-1.8516-4.3281-1.8516h-5.7891c-3.3086 0-6-2.6914-6-6v-29c0-3.3086 2.6914-6 6-6h38c3.3086 0 6 2.6914 6 6z"/>
            <path d="m39.73 48.121 2.3711 1.7188-0.85937 2.6484c-0.60156 1.8398 0.03125 3.8398 1.5703 4.9805l0.17188 0.12109c0.76953 0.55078 1.6602 0.83984 2.5898 0.83984 0.92969 0 1.8711-0.30078 2.6406-0.85938l2.2891-1.6602 2.2812 1.6484c0.80078 0.57031 1.6992 0.85938 2.6484 0.85938 0.94922 0 1.8203-0.28125 2.5703-0.82031l0.14844-0.10938c1.5781-1.1719 2.2109-3.1719 1.6094-5.0195l-0.85938-2.6484 2.3711-1.7109c1.5508-1.1211 2.2305-3.0898 1.6797-4.9102-0.60938-1.9414-2.3281-3.2188-4.3086-3.2188h-2.9414l-0.94922-2.8984c-0.58984-1.8281-2.2891-3.0586-4.2305-3.0586-1.9414 0-3.6484 1.2305-4.25 3.0586l-0.94922 2.8984h-2.9414c-1.9688 0-3.6914 1.25-4.2695 3.1094-0.57812 1.8789 0.078125 3.8789 1.6406 5.0117zm2.1914-3.8125c0.058594-0.17969 0.23828-0.30859 0.46094-0.30859h4.0391c1.0781 0 2.0312-0.69141 2.3711-1.7188l1.2891-3.9414c0.058594-0.19141 0.25-0.30078 0.44141-0.30078 0.19141 0 0.35937 0.10156 0.42969 0.30078l1.2891 3.9414c0.32812 1.0312 1.2891 1.7188 2.3711 1.7188h4.0391c0.21094 0 0.39844 0.12891 0.48047 0.37891 0.050782 0.17969-0.019531 0.39062-0.19141 0.51172l-3.2617 2.3594c-0.87891 0.64062-1.2383 1.7617-0.91016 2.7891l1.1992 3.6914c0.058594 0.19922 0 0.42188-0.14844 0.53125l-0.12109 0.089843c-0.070313 0.050782-0.16016 0.078126-0.25 0.078126-0.10156 0-0.21094-0.03125-0.30078-0.10156l-3.1719-2.2891c-0.44141-0.32031-0.94922-0.48047-1.4609-0.48047s-1.0195 0.16016-1.4609 0.48047l-3.1719 2.2891c-0.089843 0.070313-0.19922 0.10156-0.30078 0.10156-0.089843 0-0.17969-0.03125-0.25-0.078126l-0.12891-0.089843c-0.14844-0.10938-0.21875-0.32812-0.14844-0.53125l1.1992-3.6914c0.33984-1.0312-0.03125-2.1484-0.91016-2.7891l-3.2617-2.3594c-0.17188-0.12109-0.25-0.32812-0.17188-0.57812z"/>
        </symbol>
        <symbol id="starfill" viewBox="-5.0 -10.0 110.0 135.0">
            <path d="m54.023 11.145 9.8906 20.039c0.65234 1.3242 1.918 2.2422 3.3789 2.457l22.113 3.2148v-0.003907c1.6914 0.24609 3.0938 1.4297 3.6211 3.0547s0.089844 3.4062-1.1367 4.6016l-16 15.598c-1.0586 1.0273-1.5391 2.5156-1.2891 3.9688l3.7773 22.023v0.003906c0.28906 1.6797-0.40625 3.3828-1.7852 4.3867-1.3828 1.0039-3.2148 1.1367-4.7266 0.33984l-19.777-10.398h-0.003906c-1.3047-0.68359-2.8672-0.68359-4.1758 0l-19.777 10.398c-1.5117 0.79688-3.3438 0.66406-4.7266-0.33984-1.3789-1.0039-2.0742-2.707-1.7852-4.3867l3.7773-22.023v-0.003906c0.25-1.4531-0.23047-2.9414-1.2891-3.9688l-16-15.598c-1.2266-1.1953-1.6641-2.9766-1.1367-4.6016s1.9297-2.8086 3.6211-3.0547l22.113-3.2148v0.003906c1.4609-0.21484 2.7266-1.1328 3.3789-2.457l9.8906-20.039c0.75391-1.5312 2.3164-2.5 4.0234-2.5s3.2695 0.96875 4.0234 2.5z"/>
        </symbol>
        <symbol id="starhalf" viewBox="0 0 417 521.25">
            <path d="M2045 3671 c-44 -11 -86 -35 -117 -68 -15 -15 -117 -211 -227 -436 -157 -319 -205 -409 -223 -415 -13 -5 -219 -37 -458 -71 -483 -69 -502 -74 -555 -149 -41 -60 -47 -157 -13 -219 14 -25 155 -171 348 -358 179 -173 326 -319 328 -324 2 -5 -31 -208 -72 -450 -42 -242 -76 -457 -76 -478 1 -80 66 -167 145 -193 80 -27 105 -17 533 208 222 117 413 212 425 212 13 0 169 -77 347 -171 503 -265 495 -261 562 -256 95 8 164 66 189 157 11 41 5 85 -65 490 -42 245 -76 455 -76 466 0 14 107 126 332 345 228 223 337 336 349 364 40 88 8 205 -71 260 -38 26 -68 32 -488 92 -246 36 -458 69 -472 74 -20 8 -63 86 -230 425 -152 310 -212 423 -237 444 -27 24 -121 63 -142 59 -3 -1 -19 -4 -36 -8z m518 -1038 c20 -18 54 -37 74 -42 21 -5 229 -37 463 -71 234 -33 435 -65 448 -70 51 -22 32 -48 -190 -266 -457 -448 -463 -454 -478 -508 -13 -46 -10 -72 65 -508 82 -480 83 -489 37 -496 -13 -2 -181 81 -416 205 l-396 208 1 1150 0 1150 178 -360 c141 -287 185 -367 214 -392z"/>
        </symbol>
        <symbol id="description" viewBox="-5.0 -10.0 110.0 135.0">
            <path d="m23.391 67.609c2.2383 2.2383 5.0703 3.5195 8.8984 4.0391 1.3984 0.19141 3.1602 0.28125 4.3984 0.32031h0.39062s0.89062 0.89844 0.89062 0.89844v-0.87109h0.050781v0.92188s5.3203 5.3281 5.3203 5.3281c1.7812 1.7812 4.1406 2.7617 6.6602 2.7617s4.8789-0.98047 6.6602-2.7617l6.2617-6.2617h0.39062c1.2305-0.058594 2.9883-0.14844 4.3984-0.33984 3.8281-0.51953 6.6484-1.8008 8.8984-4.0391 2.2383-2.2383 3.5195-5.0703 4.0391-8.8984 0.35156-2.6406 0.35156-5.8008 0.35156-9.4492v-7.5312c0-3.5781 0-6.6914-0.32812-9.3008l-0.03125-0.058593v-0.14844c-0.51953-3.8008-1.8008-6.6094-4.0312-8.8281-2.2383-2.2383-5.0703-3.5195-8.8984-4.0391-2.6406-0.35937-5.8008-0.35937-9.4492-0.35937h-16.531c-3.6484 0-6.8008 0-9.4492 0.35937-3.8281 0.51953-6.6484 1.8008-8.8984 4.0391-2.2383 2.2383-3.5195 5.0703-4.0391 8.8984-0.35156 2.6484-0.35156 5.8008-0.35156 9.4492v7.5312c0 3.6484 0 6.8008 0.35937 9.4492 0.51172 3.8281 1.8008 6.6602 4.0391 8.8984zm1.6094-25.871c0-3.4297 0-6.3984 0.30078-8.6484 0.42969-3.1797 1.4219-4.5391 2.3281-5.4492 0.92188-0.92188 2.2812-1.9102 5.4492-2.3281 2.2383-0.30078 5.2109-0.30078 8.6484-0.30078h16.531c3.4414 0 6.3984 0 8.6484 0.30078 3.1719 0.42969 4.5391 1.4219 5.4492 2.3281 0.91016 0.91016 1.9102 2.2812 2.3281 5.4492 0.30078 2.25 0.30078 5.2109 0.30078 8.6484v7.5312c0 3.4414 0 6.3984-0.30078 8.6484-0.42969 3.1719-1.4219 4.5391-2.3281 5.4492-0.92188 0.92187-2.2812 1.9102-5.4492 2.3281-1.3203 0.17969-3.3984 0.26953-4.8906 0.30078-1.3398 0-2.1719 0.55859-3.0703 1.4609l-6.5391 6.5391c-0.64844 0.64844-1.5312 0.98047-2.4102 0.98047s-1.7617-0.32812-2.4102-0.98047l-6.5312-6.5312c-0.89844-0.89844-1.7305-1.4688-3.0508-1.4688-1.5195-0.03125-3.5898-0.12109-4.9102-0.30078-3.1719-0.42969-4.5391-1.4219-5.4492-2.3281-0.92188-0.92188-1.9102-2.2812-2.3281-5.4492-0.30078-2.25-0.30078-5.2109-0.30078-8.6484v-7.5312z"/>
            <path d="m46 41h8c1.6484 0 3-1.3516 3-3s-1.3516-3-3-3h-8c-1.6484 0-3 1.3516-3 3s1.3516 3 3 3z"/>
            <path d="m40 56h20c1.6484 0 3-1.3516 3-3s-1.3516-3-3-3h-20c-1.6484 0-3 1.3516-3 3s1.3516 3 3 3z"/>
        </symbol>
        <symbol id="heartfill" viewBox="0 0 512 512">
            <path
                d="M47.6 300.4L228.3 469.1c7.5 7 17.4 10.9 27.7 10.9s20.2-3.9 27.7-10.9L464.4 300.4c30.4-28.3 47.6-68 47.6-109.5v-5.8c0-69.9-50.5-129.5-119.4-141C347 36.5 300.6 51.4 268 84L256 96 244 84c-32.6-32.6-79-47.5-124.6-39.9C50.5 55.6 0 115.2 0 185.1v5.8c0 41.5 17.2 81.2 47.6 109.5z"
                fill="##ff0000"
            />
        </symbol>
        <symbol id="heart" viewBox="0 0 512 512">
            <path
                d="M225.8 468.2l-2.5-2.3L48.1 303.2C17.4 274.7 0 234.7 0 192.8l0-3.3c0-70.4 50-130.8 119.2-144C158.6 37.9 198.9 47 231 69.6c9 6.4 17.4 13.8 25 22.3c4.2-4.8 8.7-9.2 13.5-13.3c3.7-3.2 7.5-6.2 11.5-9c0 0 0 0 0 0C313.1 47 353.4 37.9 392.8 45.4C462 58.6 512 119.1 512 189.5l0 3.3c0 41.9-17.4 81.9-48.1 110.4L288.7 465.9l-2.5 2.3c-8.2 7.6-19 11.9-30.2 11.9s-22-4.2-30.2-11.9zM239.1 145c-.4-.3-.7-.7-1-1.1l-17.8-20-.1-.1s0 0 0 0c-23.1-25.9-58-37.7-92-31.2C81.6 101.5 48 142.1 48 189.5l0 3.3c0 28.5 11.9 55.8 32.8 75.2L256 430.7 431.2 268c20.9-19.4 32.8-46.7 32.8-75.2l0-3.3c0-47.3-33.6-88-80.1-96.9c-34-6.5-69 5.4-92 31.2c0 0 0 0-.1 .1s0 0-.1 .1l-17.8 20c-.3 .4-.7 .7-1 1.1c-4.5 4.5-10.6 7-16.9 7s-12.4-2.5-16.9-7z"
                fill="##ff0000"
            />
        </symbol>
    </defs>
</svg>