<svg xmlns="http://www.w3.org/2000/svg" version="1.0" viewBox="0 0 417 521.25" preserveAspectRatio="xMidYMid meet" x="0px" y="0px"><g transform="translate(0.000000,417.000000) scale(0.100000,-0.100000)" fill="#000000" stroke="none"><path d="M2045 3671 c-44 -11 -86 -35 -117 -68 -15 -15 -117 -211 -227 -436 -157 -319 -205 -409 -223 -415 -13 -5 -219 -37 -458 -71 -483 -69 -502 -74 -555 -149 -41 -60 -47 -157 -13 -219 14 -25 155 -171 348 -358 179 -173 326 -319 328 -324 2 -5 -31 -208 -72 -450 -42 -242 -76 -457 -76 -478 1 -80 66 -167 145 -193 80 -27 105 -17 533 208 222 117 413 212 425 212 13 0 169 -77 347 -171 503 -265 495 -261 562 -256 95 8 164 66 189 157 11 41 5 85 -65 490 -42 245 -76 455 -76 466 0 14 107 126 332 345 228 223 337 336 349 364 40 88 8 205 -71 260 -38 26 -68 32 -488 92 -246 36 -458 69 -472 74 -20 8 -63 86 -230 425 -152 310 -212 423 -237 444 -27 24 -121 63 -142 59 -3 -1 -19 -4 -36 -8z m518 -1038 c20 -18 54 -37 74 -42 21 -5 229 -37 463 -71 234 -33 435 -65 448 -70 51 -22 32 -48 -190 -266 -457 -448 -463 -454 -478 -508 -13 -46 -10 -72 65 -508 82 -480 83 -489 37 -496 -13 -2 -181 81 -416 205 l-396 208 1 1150 0 1150 178 -360 c141 -287 185 -367 214 -392z"/></g><text x="0" y="432" fill="#000000" font-size="5px" font-weight="bold" font-family="'Helvetica Neue', Helvetica, Arial-Unicode, Arial, Sans-serif">Created by 수진</text><text x="0" y="437" fill="#000000" font-size="5px" font-weight="bold" font-family="'Helvetica Neue', Helvetica, Arial-Unicode, Arial, Sans-serif">from the Noun Project</text></svg>