<svg xmlns="http://www.w3.org/2000/svg" version="1.1" viewBox="-5.0 -10.0 110.0 135.0">
 <path d="m54.023 11.145 9.8906 20.039c0.65234 1.3242 1.918 2.2422 3.3789 2.457l22.113 3.2148v-0.003907c1.6914 0.24609 3.0938 1.4297 3.6211 3.0547s0.089844 3.4062-1.1367 4.6016l-16 15.598c-1.0586 1.0273-1.5391 2.5156-1.2891 3.9688l3.7773 22.023v0.003906c0.28906 1.6797-0.40625 3.3828-1.7852 4.3867-1.3828 1.0039-3.2148 1.1367-4.7266 0.33984l-19.777-10.398h-0.003906c-1.3047-0.68359-2.8672-0.68359-4.1758 0l-19.777 10.398c-1.5117 0.79688-3.3438 0.66406-4.7266-0.33984-1.3789-1.0039-2.0742-2.707-1.7852-4.3867l3.7773-22.023v-0.003906c0.25-1.4531-0.23047-2.9414-1.2891-3.9688l-16-15.598c-1.2266-1.1953-1.6641-2.9766-1.1367-4.6016s1.9297-2.8086 3.6211-3.0547l22.113-3.2148v0.003906c1.4609-0.21484 2.7266-1.1328 3.3789-2.457l9.8906-20.039c0.75391-1.5312 2.3164-2.5 4.0234-2.5s3.2695 0.96875 4.0234 2.5z"/>
<text x="0.0" y="117.5" font-size="5.0" font-weight="bold" font-family="Arbeit Regular, Helvetica, Arial-Unicode, Arial, Sans-serif" fill="#000000">Created by sugeng riyanto</text><text x="0.0" y="122.5" font-size="5.0" font-weight="bold" font-family="Arbeit Regular, Helvetica, Arial-Unicode, Arial, Sans-serif" fill="#000000">from Noun Project</text></svg>