<svg xmlns="http://www.w3.org/2000/svg" version="1.1" viewBox="-5.0 -10.0 110.0 135.0">
 <path d="m95.312 78.125c-0.20312 0-0.40625 0.015625-0.60938 0.042969-0.007813-0.0625-0.023437-0.12109-0.039063-0.17969l-6.5781-23.023c-0.57031-2-2.4258-3.3984-4.5078-3.3984h-3.5234c-1.7891 0-3.3945 0.99219-4.1953 2.5938l-3.3906 6.7812h-3.9922c-1.25 0-2.4297 0.48828-3.3125 1.375l-3.3125 3.3125h-4.0391c-0.28125 0-0.5625 0.027344-0.83594 0.078125l-4.9531-4.9531c-0.88281-0.88281-2.0625-1.375-3.3125-1.375h-3.7969c-1.1172 0-2.2031 0.39844-3.0508 1.1289l-9.6211 8.2461h-4.8906l-3.2812-4.375c-0.88281-1.1719-2.2812-1.875-3.75-1.875h-1.3125c-1.6797 0-3.2383 0.90625-4.0703 2.3594l-5.9766 10.461c-1.4766 0.48828-2.7148 1.5078-3.4727 2.875-0.26172-0.046875-0.52734-0.070313-0.79688-0.070313-2.5859 0-4.6875 2.1016-4.6875 4.6875v3.125c0 0.86328 0.69922 1.5625 1.5625 1.5625h96.875c0.86328 0 1.5625-0.69922 1.5625-1.5625v-3.125c0-2.5859-2.1016-4.6875-4.6875-4.6875zm-32.812-9.375c0.41406 0 0.8125-0.16406 1.1055-0.45703l3.7695-3.7695c0.29688-0.29688 0.6875-0.45703 1.1055-0.45703h4.9531c0.59375 0 1.1328-0.33594 1.3984-0.86328l3.8242-7.6484c0.26562-0.53125 0.80469-0.86328 1.3984-0.86328h3.5234c0.69531 0 1.3125 0.46875 1.5 1.1328l5.5352 19.375c-0.5-0.125-1.0195-0.19531-1.5547-0.19531-1.1055 0-2.1797 0.29297-3.125 0.83594-0.94531-0.54688-2.0195-0.83594-3.125-0.83594-2.3203 0-4.375 1.25-5.4531 3.1953-0.26172-0.046875-0.52734-0.070313-0.79688-0.070313-2.5859 0-4.6875 2.1016-4.6875 4.6875v1.5625h-26.562l11.25-15c0.29297-0.39062 0.76172-0.625 1.25-0.625h4.6875zm-44.855-2.3359c0.27734-0.48828 0.79688-0.78906 1.3594-0.78906h1.3125c0.48828 0 0.95703 0.23438 1.25 0.625l3.75 5c0.29688 0.39062 0.75781 0.625 1.25 0.625h6.25c0.375 0 0.73438-0.13281 1.0156-0.375l10.062-8.625c0.28125-0.24219 0.64453-0.375 1.0156-0.375h3.7969c0.41797 0 0.8125 0.16406 1.1055 0.45703l4.3828 4.3828c-0.042968 0.054687-0.085937 0.10547-0.12891 0.16406l-12.656 16.875h-13.281v-1.5625c0-2.5859-2.1016-4.6875-4.6875-4.6875-0.26562 0-0.53125 0.023438-0.79688 0.070313-1.0781-1.9375-3.1328-3.1953-5.4531-3.1953-1.1055 0-2.1797 0.29297-3.125 0.83594-0.45703-0.26562-0.94531-0.46875-1.4531-0.60938l5.0391-8.8164zm-14.52 16.398c0-0.85938 0.70312-1.5625 1.5625-1.5625 0.29688 0 0.58594 0.085938 0.83984 0.25 0.42969 0.27344 0.96094 0.32422 1.4297 0.13281 0.46875-0.19141 0.82031-0.60156 0.93359-1.0938 0.28906-1.2344 1.2734-2.1484 2.4883-2.3633h0.003906c0.17969-0.03125 0.36328-0.046875 0.55078-0.046875 0.76953 0 1.5078 0.28125 2.082 0.79688 0.59375 0.53125 1.4922 0.53125 2.0859 0 0.57422-0.51562 1.3125-0.79688 2.082-0.79688 1.4609 0 2.7109 0.99219 3.043 2.4141 0.11719 0.49219 0.46094 0.90234 0.93359 1.0938 0.46875 0.19141 1.0078 0.14062 1.4297-0.13281 0.25-0.16406 0.54297-0.25 0.83984-0.25 0.85937 0 1.5625 0.70312 1.5625 1.5625v1.5625l-21.867-0.003906zm93.75 1.5625h-21.875v-1.5625c0-0.85938 0.70312-1.5625 1.5625-1.5625 0.29688 0 0.58594 0.085938 0.83984 0.25 0.42969 0.27344 0.96094 0.32422 1.4297 0.13281 0.46875-0.19141 0.82031-0.60156 0.93359-1.0938 0.32812-1.4219 1.582-2.4141 3.043-2.4141 0.76953 0 1.5078 0.28125 2.082 0.79688 0.59375 0.53125 1.4922 0.53125 2.0859 0 0.57422-0.51562 1.3125-0.79688 2.082-0.79688 1.4609 0 2.7109 0.99219 3.043 2.4141 0.11719 0.49219 0.46094 0.90234 0.93359 1.0938 0.46875 0.19141 1.0078 0.14063 1.4297-0.13281 0.25-0.16406 0.54297-0.25 0.83984-0.25 0.85937 0 1.5625 0.70312 1.5625 1.5625v1.5625z"/>
 <path d="m10.938 41.789v3.5234c-0.86328 0-1.5625 0.69922-1.5625 1.5625v6.25c0 0.86328 0.69922 1.5625 1.5625 1.5625h9.375c0.86328 0 1.5625-0.69922 1.5625-1.5625v-6.25c0-0.86328-0.69922-1.5625-1.5625-1.5625v-3.5234c0.035156-0.03125 0.070312-0.0625 0.10156-0.097656 0.3125-0.33594 7.7109-8.3594 7.7109-16.691 0-6.8906-5.6094-12.5-12.5-12.5s-12.5 5.6094-12.5 12.5c0 8.332 7.3945 16.352 7.7109 16.691 0.03125 0.035156 0.066406 0.066406 0.10156 0.097656zm7.8125 9.7734h-6.25v-3.125h6.25zm-4.6875-6.25v-3.125h3.125v3.125zm1.5625-29.688c5.1719 0 9.375 4.2031 9.375 9.375 0 6.0312-4.9219 12.285-6.4375 14.062h-5.875c-1.5117-1.7773-6.4375-8.0312-6.4375-14.062 0-5.1719 4.2031-9.375 9.375-9.375z"/>
 <path d="m42.188 35.938h21.875c3.4453 0 6.25-2.8047 6.25-6.25 0-3.4492-2.8047-6.25-6.25-6.25-1.1055 0-2.1797 0.29297-3.125 0.83594-0.94531-0.54688-2.0195-0.83594-3.125-0.83594-0.48438 0-0.96875 0.054688-1.4414 0.17188-1.4492-2.0391-3.8203-3.2969-6.3711-3.2969s-4.9219 1.2578-6.3711 3.2969c-0.46875-0.10938-0.95703-0.17188-1.4414-0.17188-3.4453 0-6.25 2.8047-6.25 6.25 0 3.4492 2.8047 6.25 6.25 6.25zm0-9.375c0.5 0 0.97656 0.11719 1.4219 0.34375 0.37891 0.19531 0.82031 0.22266 1.2227 0.085938 0.40234-0.14063 0.73047-0.4375 0.91016-0.82031 0.76562-1.6562 2.4375-2.7305 4.2578-2.7305 1.8242 0 3.4961 1.0703 4.2578 2.7305 0.17969 0.38672 0.50781 0.68359 0.91016 0.82031 0.40234 0.14062 0.84375 0.10937 1.2227-0.085938 0.44531-0.22656 0.92188-0.34375 1.4219-0.34375 0.76953 0 1.5078 0.28125 2.082 0.79688 0.59375 0.53125 1.4922 0.53125 2.0859 0 0.57422-0.51562 1.3125-0.79688 2.082-0.79688 1.7227 0 3.125 1.4023 3.125 3.125s-1.4023 3.125-3.125 3.125h-21.875c-1.7227 0-3.125-1.4023-3.125-3.125s1.4023-3.125 3.125-3.125z"/>
 <path d="m75 48.438h15.625c3.4453 0 6.25-2.8047 6.25-6.25 0-3.4492-2.8047-6.25-6.25-6.25-0.48438 0-0.96875 0.054688-1.4414 0.17188-1.4492-2.0391-3.8203-3.2969-6.3711-3.2969s-4.9219 1.2578-6.3711 3.2969c-0.46875-0.10938-0.95703-0.17188-1.4414-0.17188-3.4453 0-6.25 2.8047-6.25 6.25 0 3.4492 2.8047 6.25 6.25 6.25zm0-9.375c0.5 0 0.97656 0.11719 1.4219 0.34375 0.37891 0.19531 0.82031 0.22266 1.2227 0.085938 0.40234-0.14063 0.73047-0.4375 0.91016-0.82031 0.76562-1.6562 2.4375-2.7305 4.2578-2.7305 1.8242 0 3.3906 1.0078 4.1875 2.5781 0.035156 0.10547 0.082031 0.20703 0.14062 0.30469 0.42188 0.71094 1.3242 0.96484 2.0586 0.58594 0.44531-0.23047 0.92578-0.34766 1.4297-0.34766 1.7227 0 3.125 1.4023 3.125 3.125s-1.4023 3.125-3.125 3.125h-15.625c-1.7227 0-3.125-1.4023-3.125-3.125s1.4023-3.125 3.125-3.125z"/>
<text x="0.0" y="117.5" font-size="5.0" font-weight="bold" font-family="Arbeit Regular, Helvetica, Arial-Unicode, Arial, Sans-serif" fill="#000000">Created by Edy Subiyanto</text><text x="0.0" y="122.5" font-size="5.0" font-weight="bold" font-family="Arbeit Regular, Helvetica, Arial-Unicode, Arial, Sans-serif" fill="#000000">from Noun Project</text></svg>