<svg xmlns="http://www.w3.org/2000/svg" version="1.1" viewBox="-5.0 -10.0 110.0 135.0">
 <path d="m83.332 54.168h-21.875c-4.0156 0.019531-7.2695 3.2734-7.2891 7.2891v21.875c0.019531 4.0195 3.2734 7.2695 7.2891 7.293h21.875c4.0195-0.023438 7.2695-3.2734 7.293-7.293v-21.875c-0.023438-4.0156-3.2734-7.2695-7.293-7.2891zm1.043 29.168v-0.003907c0 0.27734-0.10938 0.54297-0.30469 0.73828-0.19531 0.19531-0.46094 0.30469-0.73828 0.30469h-21.875c-0.57422 0-1.0391-0.46484-1.0391-1.043v-21.875c0-0.57422 0.46484-1.0391 1.0391-1.0391h21.875c0.27734 0 0.54297 0.10938 0.73828 0.30469 0.19531 0.19531 0.30469 0.46094 0.30469 0.73438zm-45.832-29.168h-21.875c-4.0195 0.019531-7.2695 3.2734-7.293 7.2891v21.875c0.023438 4.0195 3.2734 7.2695 7.293 7.293h21.875c4.0156-0.023438 7.2695-3.2734 7.2891-7.293v-21.875c-0.019531-4.0156-3.2734-7.2695-7.2891-7.2891zm1.043 29.168-0.003907-0.003907c0 0.27734-0.10938 0.54297-0.30469 0.73828-0.19531 0.19531-0.46094 0.30469-0.73438 0.30469h-21.875c-0.57812 0-1.043-0.46484-1.043-1.043v-21.875c0-0.57422 0.46484-1.0391 1.043-1.0391h21.875c0.27344 0 0.53906 0.10938 0.73438 0.30469 0.19531 0.19531 0.30469 0.46094 0.30469 0.73438zm-1.043-73.961h-21.875c-4.0195 0.023438-7.2695 3.2734-7.293 7.293v21.875c0.023438 4.0156 3.2734 7.2695 7.293 7.2891h21.875c4.0156-0.019531 7.2695-3.2734 7.2891-7.2891v-21.875c-0.019531-4.0195-3.2734-7.2695-7.2891-7.293zm1.043 29.168h-0.003907c0 0.27344-0.10938 0.53906-0.30469 0.73438-0.19531 0.19531-0.46094 0.30469-0.73438 0.30469h-21.875c-0.57812 0-1.043-0.46484-1.043-1.0391v-21.875c0-0.57812 0.46484-1.043 1.043-1.043h21.875c0.27344 0 0.53906 0.10938 0.73438 0.30469 0.19531 0.19531 0.30469 0.46094 0.30469 0.73828zm15.621-11.461c0.023438-1.7148 1.4102-3.1016 3.125-3.125h11.457l0.003907-11.457c0-1.7266 1.3984-3.125 3.125-3.125 1.7227 0 3.125 1.3984 3.125 3.125v11.457h11.457c1.7266 0 3.125 1.4023 3.125 3.125 0 1.7266-1.3984 3.125-3.125 3.125h-11.457v11.461c0 1.7227-1.4023 3.125-3.125 3.125-1.7266 0-3.125-1.4023-3.125-3.125v-11.461h-11.461c-1.7148-0.019531-3.1016-1.4062-3.125-3.125z"/>
<text x="0.0" y="117.5" font-size="5.0" font-weight="bold" font-family="Arbeit Regular, Helvetica, Arial-Unicode, Arial, Sans-serif" fill="#000000">Created by Dwi ridwanto</text><text x="0.0" y="122.5" font-size="5.0" font-weight="bold" font-family="Arbeit Regular, Helvetica, Arial-Unicode, Arial, Sans-serif" fill="#000000">from Noun Project</text></svg>