<svg xmlns="http://www.w3.org/2000/svg" version="1.1" viewBox="-5.0 -10.0 110.0 135.0">
 <path d="m23.391 67.609c2.2383 2.2383 5.0703 3.5195 8.8984 4.0391 1.3984 0.19141 3.1602 0.28125 4.3984 0.32031h0.39062s0.89062 0.89844 0.89062 0.89844v-0.87109h0.050781v0.92188s5.3203 5.3281 5.3203 5.3281c1.7812 1.7812 4.1406 2.7617 6.6602 2.7617s4.8789-0.98047 6.6602-2.7617l6.2617-6.2617h0.39062c1.2305-0.058594 2.9883-0.14844 4.3984-0.33984 3.8281-0.51953 6.6484-1.8008 8.8984-4.0391 2.2383-2.2383 3.5195-5.0703 4.0391-8.8984 0.35156-2.6406 0.35156-5.8008 0.35156-9.4492v-7.5312c0-3.5781 0-6.6914-0.32812-9.3008l-0.03125-0.058593v-0.14844c-0.51953-3.8008-1.8008-6.6094-4.0312-8.8281-2.2383-2.2383-5.0703-3.5195-8.8984-4.0391-2.6406-0.35937-5.8008-0.35937-9.4492-0.35937h-16.531c-3.6484 0-6.8008 0-9.4492 0.35937-3.8281 0.51953-6.6484 1.8008-8.8984 4.0391-2.2383 2.2383-3.5195 5.0703-4.0391 8.8984-0.35156 2.6484-0.35156 5.8008-0.35156 9.4492v7.5312c0 3.6484 0 6.8008 0.35937 9.4492 0.51172 3.8281 1.8008 6.6602 4.0391 8.8984zm1.6094-25.871c0-3.4297 0-6.3984 0.30078-8.6484 0.42969-3.1797 1.4219-4.5391 2.3281-5.4492 0.92188-0.92188 2.2812-1.9102 5.4492-2.3281 2.2383-0.30078 5.2109-0.30078 8.6484-0.30078h16.531c3.4414 0 6.3984 0 8.6484 0.30078 3.1719 0.42969 4.5391 1.4219 5.4492 2.3281 0.91016 0.91016 1.9102 2.2812 2.3281 5.4492 0.30078 2.25 0.30078 5.2109 0.30078 8.6484v7.5312c0 3.4414 0 6.3984-0.30078 8.6484-0.42969 3.1719-1.4219 4.5391-2.3281 5.4492-0.92188 0.92187-2.2812 1.9102-5.4492 2.3281-1.3203 0.17969-3.3984 0.26953-4.8906 0.30078-1.3398 0-2.1719 0.55859-3.0703 1.4609l-6.5391 6.5391c-0.64844 0.64844-1.5312 0.98047-2.4102 0.98047s-1.7617-0.32812-2.4102-0.98047l-6.5312-6.5312c-0.89844-0.89844-1.7305-1.4688-3.0508-1.4688-1.5195-0.03125-3.5898-0.12109-4.9102-0.30078-3.1719-0.42969-4.5391-1.4219-5.4492-2.3281-0.92188-0.92188-1.9102-2.2812-2.3281-5.4492-0.30078-2.25-0.30078-5.2109-0.30078-8.6484v-7.5312z"/>
 <path d="m46 41h8c1.6484 0 3-1.3516 3-3s-1.3516-3-3-3h-8c-1.6484 0-3 1.3516-3 3s1.3516 3 3 3z"/>
 <path d="m40 56h20c1.6484 0 3-1.3516 3-3s-1.3516-3-3-3h-20c-1.6484 0-3 1.3516-3 3s1.3516 3 3 3z"/>
<text x="0.0" y="117.5" font-size="5.0" font-weight="bold" font-family="Arbeit Regular, Helvetica, Arial-Unicode, Arial, Sans-serif" fill="#000000">Created by Gregor Cresnar</text><text x="0.0" y="122.5" font-size="5.0" font-weight="bold" font-family="Arbeit Regular, Helvetica, Arial-Unicode, Arial, Sans-serif" fill="#000000">from Noun Project</text></svg>