<svg xmlns="http://www.w3.org/2000/svg" version="1.1" viewBox="-5.0 -10.0 110.0 135.0">
 <path d="m49.531 96.379c-17.039 0-29.891-6.1094-30.621-14.609-0.26562-3.0625 0.96875-10.121 16.453-13.918-3.1094-3.9102-6.7227-8.4609-9.3789-11.754-16.812-20.012-2.2578-54.188 24.836-52.473 26.156 0.089844 39.586 33.164 23.293 52.707-2.4727 3.0664-5.8086 7.2109-9.2422 11.488 10.207 2.5078 16.344 7.4414 16.344 13.43 0.125 8.7148-14.09 15.312-31.684 15.129zm-9.8398-23.074c-25.629 5.0117-13.875 16.387 9.8516 16.828 24.301-0.28125 36.793-11.48 10.953-16.848-2.8633 3.4609-5.5117 7.1602-8.3555 10.402l-0.019531 0.019531-0.003906 0.007813-0.011719 0.011718h-0.015625l-0.007813 0.007813s0.019531 0.007813-0.003906 0.003906v0.003907h-0.003906v0.003906h-0.003907l-0.023437 0.023437-0.007813 0.003907v0.003906h-0.003906v0.003906l-0.007812 0.007812-0.007813 0.003907-0.003906 0.003906s0.011719 0-0.003906 0.003906l-0.042969 0.042969-0.027344 0.019531-0.003906-0.027343c-0.61719 0.41797-1.3633 0.60547-2.1055 0.52344l-0.007812-0.003906-0.019531-0.003907c-0.0625-0.003906-0.12109-0.011718-0.18359-0.027343l-0.015625-0.003907h-0.015625v-0.003906l-0.015625-0.003906v0.003906c-0.38672-0.074218-0.75781-0.22266-1.0859-0.44141l-0.003906-0.003906-0.007813-0.003906-0.003906-0.003907v-0.003906h-0.003906v-0.003906h-0.003906v-0.003907h-0.003906s0.015624-0.003906-0.003907-0.003906c0 0 0.019531 0-0.003906-0.003906 0 0 0.011719 0.003906-0.003906-0.003906v-0.003906l-0.011719 0.003906-0.011719-0.011719-0.015625-0.007813-0.011718-0.011718-0.011719-0.007813-0.003907-0.003906c-2.7656-2.8516-5.8633-7.1367-8.6914-10.492zm6.9453-1.3555c1.1484 1.418 2.4141 2.9688 3.5039 4.3047 6.1836-7.8086 13.824-17.293 19.098-23.836 13.07-15.5 2.3945-42.594-18.633-42.547-21.715-1.5625-33.234 26.508-19.762 42.297 4.7227 5.8516 10.871 13.672 15.793 19.785zm25.035-17.57zm-21.672-3.4922c-4.3086 0.074219-8.4609-1.6055-11.504-4.6484-3.0469-3.043-4.7305-7.1953-4.6602-11.5 0.79687-21.207 31.531-21.207 32.324 0.003907h0.003906c0.058594 4.3047-1.625 8.4492-4.668 11.488-3.0469 3.043-7.1953 4.7227-11.496 4.6562zm-9.9102-16.051h-0.003906c-0.0625 2.6367 0.96484 5.1875 2.8398 7.043 1.875 1.8555 4.4336 2.8516 7.0742 2.7578 12.992 0.09375 13.203-19.652 0-19.602-2.6367-0.09375-5.1953 0.90625-7.0742 2.7578-1.875 1.8555-2.9023 4.4062-2.8398 7.043z"/>
<text x="0.0" y="117.5" font-size="5.0" font-weight="bold" font-family="Arbeit Regular, Helvetica, Arial-Unicode, Arial, Sans-serif" fill="#000000">Created by sugeng riyanto</text><text x="0.0" y="122.5" font-size="5.0" font-weight="bold" font-family="Arbeit Regular, Helvetica, Arial-Unicode, Arial, Sans-serif" fill="#000000">from Noun Project</text></svg>