<svg xmlns="http://www.w3.org/2000/svg" version="1.1" viewBox="-5.0 -10.0 110.0 135.0">
 <path d="m21 31v29c0 5.5117 4.4883 10 10 10h6.6484l5.8281 6.0781c1.0117 1.0586 2.1211 1.8281 3.2891 2.2812 3.3594 1.3203 7.1719 0.53125 9.6992-2l6.3711-6.3711h6.1719c5.5117 0 10-4.4883 10-10v-29c0-5.5117-4.4883-10-10-10h-38.008c-5.5117 0-10 4.4883-10 10zm54 0v29c0 3.3086-2.6914 6-6 6h-5.3398c-1.6016 0-3.1094 0.62109-4.2383 1.7617l-5.8594 5.8594c-0.92188 0.92188-2.1406 1.4297-3.4492 1.4297h-0.10938c-1.2617-0.011719-2.5-0.55078-3.4102-1.5l-5.4609-5.6992c-1.1289-1.1797-2.6992-1.8516-4.3281-1.8516h-5.7891c-3.3086 0-6-2.6914-6-6v-29c0-3.3086 2.6914-6 6-6h38c3.3086 0 6 2.6914 6 6z"/>
 <path d="m39.73 48.121 2.3711 1.7188-0.85937 2.6484c-0.60156 1.8398 0.03125 3.8398 1.5703 4.9805l0.17188 0.12109c0.76953 0.55078 1.6602 0.83984 2.5898 0.83984 0.92969 0 1.8711-0.30078 2.6406-0.85938l2.2891-1.6602 2.2812 1.6484c0.80078 0.57031 1.6992 0.85938 2.6484 0.85938 0.94922 0 1.8203-0.28125 2.5703-0.82031l0.14844-0.10938c1.5781-1.1719 2.2109-3.1719 1.6094-5.0195l-0.85938-2.6484 2.3711-1.7109c1.5508-1.1211 2.2305-3.0898 1.6797-4.9102-0.60938-1.9414-2.3281-3.2188-4.3086-3.2188h-2.9414l-0.94922-2.8984c-0.58984-1.8281-2.2891-3.0586-4.2305-3.0586-1.9414 0-3.6484 1.2305-4.25 3.0586l-0.94922 2.8984h-2.9414c-1.9688 0-3.6914 1.25-4.2695 3.1094-0.57812 1.8789 0.078125 3.8789 1.6406 5.0117zm2.1914-3.8125c0.058594-0.17969 0.23828-0.30859 0.46094-0.30859h4.0391c1.0781 0 2.0312-0.69141 2.3711-1.7188l1.2891-3.9414c0.058594-0.19141 0.25-0.30078 0.44141-0.30078 0.19141 0 0.35937 0.10156 0.42969 0.30078l1.2891 3.9414c0.32812 1.0312 1.2891 1.7188 2.3711 1.7188h4.0391c0.21094 0 0.39844 0.12891 0.48047 0.37891 0.050782 0.17969-0.019531 0.39062-0.19141 0.51172l-3.2617 2.3594c-0.87891 0.64062-1.2383 1.7617-0.91016 2.7891l1.1992 3.6914c0.058594 0.19922 0 0.42188-0.14844 0.53125l-0.12109 0.089843c-0.070313 0.050782-0.16016 0.078126-0.25 0.078126-0.10156 0-0.21094-0.03125-0.30078-0.10156l-3.1719-2.2891c-0.44141-0.32031-0.94922-0.48047-1.4609-0.48047s-1.0195 0.16016-1.4609 0.48047l-3.1719 2.2891c-0.089843 0.070313-0.19922 0.10156-0.30078 0.10156-0.089843 0-0.17969-0.03125-0.25-0.078126l-0.12891-0.089843c-0.14844-0.10938-0.21875-0.32812-0.14844-0.53125l1.1992-3.6914c0.33984-1.0312-0.03125-2.1484-0.91016-2.7891l-3.2617-2.3594c-0.17188-0.12109-0.25-0.32812-0.17188-0.57812z"/>
<text x="0.0" y="117.5" font-size="5.0" font-weight="bold" font-family="Arbeit Regular, Helvetica, Arial-Unicode, Arial, Sans-serif" fill="#000000">Created by Gregor Cresnar</text><text x="0.0" y="122.5" font-size="5.0" font-weight="bold" font-family="Arbeit Regular, Helvetica, Arial-Unicode, Arial, Sans-serif" fill="#000000">from Noun Project</text></svg>