<svg xmlns="http://www.w3.org/2000/svg" xmlns:xlink="http://www.w3.org/1999/xlink" version="1.1" x="0px" y="0px" viewBox="0 0 100 125" style="enable-background:new 0 0 100 100;" xml:space="preserve"><g>
<path d="M50.8,50c-12.4,0-22.5-10.1-22.5-22.5C28.3,15.1,38.4,5,50.8,5c12.4,0,22.5,10.1,22.5,22.5C73.3,39.9,63.2,50,50.8,50z    M50.8,11.2c-9,0-16.3,7.3-16.3,16.3c0,9,7.3,16.3,16.3,16.3c9,0,16.3-7.3,16.3-16.3C67.1,18.5,59.8,11.2,50.8,11.2z"/></g><g><path d="M90.1,94H11.6v-3.1C11.6,73,18,60,30.3,53.3c4.6-2.5,9.2-0.9,13.4,0.6c2.5,0.9,4.9,1.7,7.2,1.7c2.3,0,4.6-0.8,7.2-1.7   c4.1-1.5,8.7-3.1,13.3-0.6C83.6,59.9,90.1,73,90.1,90.9V94z M17.8,87.8h66C83.3,77.5,80,65.1,68.3,58.7c-2-1.1-4.4-0.3-8.2,1   c-2.8,1-5.9,2.1-9.2,2.1c-3.3,0-6.5-1.1-9.2-2.1c-3.8-1.3-6.3-2.1-8.3-1C26.6,62.4,18.7,70.4,17.8,87.8z"/></g><text x="0" y="115" fill="#000000" font-size="5px" font-weight="bold" font-family="'Helvetica Neue', Helvetica, Arial-Unicode, Arial, Sans-serif">Created by Mrfa Studio</text><text x="0" y="120" fill="#000000" font-size="5px" font-weight="bold" font-family="'Helvetica Neue', Helvetica, Arial-Unicode, Arial, Sans-serif">from the Noun Project</text></svg>