<svg xmlns="http://www.w3.org/2000/svg" xmlns:xlink="http://www.w3.org/1999/xlink" version="1.1" x="0px" y="0px" viewBox="0 0 98 122.5" style="enable-background:new 0 0 98 98;" xml:space="preserve">
<path d="M72.624,87.345c-0.369,0-0.739-0.102-1.065-0.309L49,72.753L26.441,87.036c-0.689,0.436-1.575,0.408-2.235-0.071  c-0.66-0.48-0.961-1.313-0.759-2.104l6.613-25.869L9.504,41.95c-0.628-0.521-0.875-1.372-0.623-2.148  c0.252-0.776,0.952-1.319,1.766-1.372l26.647-1.704l9.855-24.815c0.301-0.758,1.034-1.256,1.85-1.256s1.549,0.498,1.85,1.256  l9.856,24.815l26.646,1.704c0.814,0.052,1.514,0.596,1.766,1.372c0.252,0.776,0.006,1.627-0.623,2.148L67.94,58.992l6.613,25.869  c0.202,0.791-0.099,1.624-0.759,2.104C73.447,87.218,73.036,87.345,72.624,87.345z M49,68.406c0.37,0,0.74,0.103,1.065,0.309  L69.454,80.99L63.77,58.757c-0.191-0.746,0.066-1.535,0.658-2.026l17.666-14.647L59.194,40.62c-0.768-0.049-1.439-0.537-1.723-1.252  L49,18.04l-8.47,21.328c-0.284,0.715-0.955,1.203-1.723,1.252l-22.902,1.465l17.667,14.647c0.593,0.491,0.849,1.28,0.658,2.026  L28.546,80.99l19.389-12.276C48.26,68.509,48.63,68.406,49,68.406z"/>
<text x="0" y="113" fill="#000000" font-size="5px" font-weight="bold" font-family="'Helvetica Neue', Helvetica, Arial-Unicode, Arial, Sans-serif">Created by Good Father</text><text x="0" y="118" fill="#000000" font-size="5px" font-weight="bold" font-family="'Helvetica Neue', Helvetica, Arial-Unicode, Arial, Sans-serif">from the Noun Project</text></svg>